# xmcd CD database file
#
# Track frame offsets:
#	150
#	18520
#	35955
#	54013
#	74413
#	92854
#	107802
#	123361
#	139953
#	157765
#	172788
#	192854
#	209163
#	226363
#	244119
#
# Disc length: 3492 seconds
#
# Revision: 3
# Processed by: cddbd v1.5.2PL0 Copyright (c) Steve Scherf et al.
# Submitted via: CDex 1.51
#
DISCID=d00da20f
DTITLE=Various Artist - STTW-3179
DYEAR=1900
DGENRE=Blues
TTITLE0=Duffy - warwick avenue
TTITLE1=Pink - so what
TTITLE2=Britney Spears - womanizer
TTITLE3=Beyonce - if i were a boy
TTITLE4=Alisha Dixon - the boy does nothing
TTITLE5=Katy Perry - i kissed a girl
TTITLE6=Sugababes - no can do
TTITLE7=Saturdays The - Up
TTITLE8=Leona Lewis - forgive me
TTITLE9=Christina Aguilera - keeps getting better
TTITLE10=Jennifer Hudson - spotlight
TTITLE11=Gabriella Climi - sweet about me
TTITLE12=Miley Cyrus - 7 things
TTITLE13=Pussycat Dolls The - i hate this part
TTITLE14=Girls Aloud - the promise
EXTD=
EXTT0=
EXTT1=
EXTT2=
EXTT3=
EXTT4=
EXTT5=
EXTT6=
EXTT7=
EXTT8=
EXTT9=
EXTT10=
EXTT11=
EXTT12=
EXTT13=
EXTT14=
PLAYORDER=
